<svg xmlns="http://www.w3.org/2000/svg" width="1200" height="630" viewBox="0 0 1200 630" role="img">
  <title>リーグ・オブ・レジェンド 26.12 パッチノート要点まとめ</title>
  <defs>
    <linearGradient id="bg" x1="0" x2="1" y1="0" y2="1">
      <stop offset="0" stop-color="#07111F"/>
      <stop offset="0.52" stop-color="#102A43"/>
      <stop offset="1" stop-color="#0F172A"/>
    </linearGradient>
  </defs>
  <rect width="1200" height="630" fill="url(#bg)"/>
  <rect x="42" y="42" width="1116" height="546" rx="18" fill="none" stroke="#2F80ED" stroke-width="2"/>
  <text x="78" y="102" font-size="28" font-weight="900" fill="#7DD3FC">Seiga Blog · LoL Patch 26.12</text>
  <text x="78" y="172" font-size="48" font-weight="900" fill="#FFFFFF">リーグ・オブ・レジェンド 26.12</text>
<text x="78" y="241" font-size="48" font-weight="900" fill="#FFFFFF">パッチノート要点まとめ</text>

            <g>
              <rect x="78" y="292" width="304" height="76" rx="8" fill="#111827" stroke="#334155"/>
              <text x="98" y="327" font-size="25" font-weight="900" fill="#F8FAFC">エイトロックス</text>
              <text x="316" y="327" font-size="17" font-weight="900" fill="#16A34A">強化</text>
            </g>
            <g>
              <rect x="420" y="292" width="304" height="76" rx="8" fill="#111827" stroke="#334155"/>
              <text x="440" y="327" font-size="25" font-weight="900" fill="#F8FAFC">グウェン</text>
              <text x="658" y="327" font-size="17" font-weight="900" fill="#16A34A">強化</text>
            </g>
            <g>
              <rect x="762" y="292" width="304" height="76" rx="8" fill="#111827" stroke="#334155"/>
              <text x="782" y="327" font-size="25" font-weight="900" fill="#F8FAFC">フェイ</text>
              <text x="1000" y="327" font-size="17" font-weight="900" fill="#16A34A">強化</text>
            </g>
            <g>
              <rect x="78" y="398" width="304" height="76" rx="8" fill="#111827" stroke="#334155"/>
              <text x="98" y="433" font-size="25" font-weight="900" fill="#F8FAFC">ジャックス</text>
              <text x="316" y="433" font-size="17" font-weight="900" fill="#16A34A">強化</text>
            </g>
            <g>
              <rect x="420" y="398" width="304" height="76" rx="8" fill="#111827" stroke="#334155"/>
              <text x="440" y="433" font-size="25" font-weight="900" fill="#F8FAFC">サイラス</text>
              <text x="658" y="433" font-size="17" font-weight="900" fill="#16A34A">強化</text>
            </g>
            <g>
              <rect x="762" y="398" width="304" height="76" rx="8" fill="#111827" stroke="#334155"/>
              <text x="782" y="433" font-size="25" font-weight="900" fill="#F8FAFC">シンドラ</text>
              <text x="1000" y="433" font-size="17" font-weight="900" fill="#16A34A">強化</text>
            </g>
  <text x="78" y="494" font-size="22" font-weight="700" fill="#DDE7F3">• 公式パッチノートを基準に、主な変更方針、ソロランクへの影響、おすすめピックをカードと表で整理しました。</text><text x="78" y="526" font-size="22" font-weight="700" fill="#DDE7F3">• チャンピオン名と画像はRiot Data Dragon公式の韓国語/日本語データに合わせています。</text><text x="78" y="558" font-size="22" font-weight="700" fill="#DDE7F3">• 詳細な数値と原文の文脈は、記事末尾の公式ソースから確認できます。</text>
</svg>
